<svg xmlns="http://www.w3.org/2000/svg" version="1.1" xmlns:xlink="http://www.w3.org/1999/xlink" xmlns:svgjs="http://svgjs.com/svgjs" width="1440" height="560" preserveAspectRatio="none" viewBox="0 0 1440 560"><g mask="url(&quot;#SvgjsMask1000&quot;)" fill="none"><rect width="1440" height="560" x="0" y="0" fill="#0e2a47"></rect><path d="M420 123.93C409.95 123.93 400.4 129.53 400.4 140C400.4 160.9 409.64 186.67 420 186.67C430.58 186.67 442.27 160.49 442.27 140C442.27 129.12 430.89 123.93 420 123.93" stroke="rgba(51, 121, 194, 0.58)" stroke-width="2"></path><path d="M967.83 0C974.94 0.39 974.35 7.78 980 7.78C984.27 7.78 982.33 0.3 987.67 0C1052.33 -3.59 1053.84 0 1120 0C1190 0 1190 0 1260 0C1330 0 1330 0 1400 0C1470 0 1494.56 -24.56 1540 0C1564.56 13.28 1564.44 59.39 1540 75.68C1494.44 106.05 1467.07 74.84 1400 93.33C1350.4 107 1311.05 102.75 1306.67 140C1300.07 196.09 1338.45 213.19 1378.04 280C1385.11 291.94 1390.49 287.21 1400 297.5C1455.17 357.21 1456.5 356.66 1507.4 420C1526.5 443.78 1533.33 443.09 1540 471.74C1549.63 513.09 1567.07 542.94 1540 560C1497.07 587.07 1470 560 1400 560C1350.13 560 1332.82 584.97 1300.25 560C1262.82 531.31 1294.32 452.67 1260 452.67C1209.8 452.67 1196.82 509.7 1131.2 560C1126.82 563.36 1125.6 560 1120 560C1050 560 1050 560 980 560C960 560 954.73 571.78 940 560C884.73 515.78 898.47 457.43 840 448C778.47 438.07 770.13 484.89 700 521.28C662.21 540.89 664.09 548.96 624.17 560C594.09 568.32 592.09 560 560 560C490 560 490 560 420 560C350 560 350 560 280 560C210 560 210 560 140 560C102.56 560 98.51 571.92 65.12 560C28.51 546.92 15.53 543.39 0 510C-17.03 473.39 0 465 0 420C0 373.34 -12.73 368.39 0 326.67C8.63 298.39 42.71 304.18 42.71 280C42.71 253.45 9.59 256.65 0 225.22C-11.77 186.65 0 182.61 0 140C0 70 -35 35 0 0C35 -35 70 0 140 0C210 0 210 0 280 0C350 0 350 0 420 0C490 0 490 0 560 0C630 0 630 0 700 0C770 0 770 0 840 0C903.91 0 904.94 -3.5 967.83 0" stroke="rgba(51, 121, 194, 0.58)" stroke-width="2"></path><path d="M980 260.51C965.09 264.88 955.16 265.73 955.16 280C955.16 334.7 941.79 371.65 980 398.46C1024.21 429.48 1071.38 427.14 1120 395.65C1162.83 367.91 1162.9 333.81 1162.9 280C1162.9 251.8 1148.48 234.67 1120 231.64C1057.03 224.93 1047.51 240.7 980 260.51" stroke="rgba(51, 121, 194, 0.58)" stroke-width="2"></path><path d="M140 371.11C110.45 391.56 86.9 393.34 86.9 420C86.9 452 103.68 481.61 140 488.44C200.23 499.76 209.45 469.39 280 456.3C349.45 443.41 354.6 452.56 420 436.47C428.38 434.41 427.57 428.28 427.57 420C427.57 411.29 427 408.84 420 402.5C353.22 342.02 353.7 294.62 280 286.36C213.7 278.93 207 324.74 140 371.11" stroke="rgba(51, 121, 194, 0.58)" stroke-width="2"></path><path d="M77.37 0C111.31 9.02 105.35 29.82 140 37.19C206.66 51.36 218.12 56.6 280 43.08C303.25 38 287.57 6.98 310.27 0C357.57 -14.56 365.13 0 420 0C490 0 490 0 560 0C630 0 630 0 700 0C770 0 770 0 840 0C865.87 0 868.59 -9.32 891.74 0C938.59 18.87 939.04 56.39 980 56.39C1010.98 56.39 1001.73 13.65 1035.62 0C1071.73 -14.54 1077.81 0 1120 0C1188.45 0 1243.24 -32.27 1256.89 0C1272.85 37.73 1227.8 80.39 1179.23 140C1159.35 164.39 1150.56 156.31 1120 168C1050.94 194.41 1045.17 183.22 980 216.2C934.52 239.22 934.54 243.42 898.71 280C864.54 314.88 869.22 319.47 840 359.13C817.65 389.47 823.27 395.28 795.56 420C753.27 457.73 751.78 460.37 700 484.04C634 514.21 610 545.7 560 527.69C521.08 513.68 526.98 475.42 522.16 420C516.21 351.57 538.54 349.99 538.46 280C538.37 209.99 553.15 196.45 521.82 140C493.92 89.73 469.78 66.56 420 66.56C374.07 66.56 372.16 100.2 330.4 140C302.16 166.92 307.09 171.78 280 200C239.89 241.78 240.53 243.24 196 280C170.53 301.02 166.33 315.56 140 315.56C119.35 315.56 118.74 299.86 102.03 280C48.74 216.65 48.35 215.48 0 149.13C-2.66 145.48 0 144.56 0 140C0 70 -24.92 45.08 0 0C13.77 -24.92 41.31 -9.58 77.37 0" stroke="rgba(51, 121, 194, 0.58)" stroke-width="2"></path><path d="M700 100.38C663.43 100.38 645.04 106.53 622.22 140C583.79 196.34 556.66 233.26 577.5 280C595.55 320.46 641.69 314.39 700 314.39C727.44 314.39 742.01 306.11 749 280C765.35 218.92 763.72 202.49 746.67 140C739.22 112.68 725.65 100.38 700 100.38" stroke="rgba(51, 121, 194, 0.58)" stroke-width="2"></path><path d="M1400 35C1334.91 35 1268.75 8.9 1268.75 0C1268.75 -8.6 1334.38 0 1400 0C1452.5 0 1505 -8.52 1505 0C1505 8.98 1453.04 35 1400 35" stroke="rgba(51, 121, 194, 0.58)" stroke-width="2"></path><path d="M1219.35 280C1219.35 242.2 1238.05 203.64 1260 203.64C1283.08 203.64 1309.41 242.32 1309.41 280C1309.41 315.5 1283.15 350 1260 350C1238.12 350 1219.35 315.38 1219.35 280" stroke="rgba(51, 121, 194, 0.58)" stroke-width="2"></path><path d="M0 391.48C7.66 391.48 26.55 405.86 26.55 420C26.55 433.87 7.72 447.5 0 447.5C-5.55 447.5 0 433.75 0 420C0 405.74 -5.61 391.48 0 391.48" stroke="rgba(51, 121, 194, 0.58)" stroke-width="2"></path><path d="M1311.43 420C1323.66 374.6 1359.08 352.19 1400 352.19C1433.09 352.19 1433.29 383.44 1459.45 420C1503.29 481.26 1502.73 483.05 1540 547.83C1543 553.05 1545.6 559.51 1540 560C1475.6 565.6 1470 560 1400 560C1372 560 1356.42 579.63 1344 560C1312.13 509.63 1295.66 478.5 1311.43 420" stroke="rgba(51, 121, 194, 0.58)" stroke-width="2"></path><path d="M147.57 560C147.57 544.16 214.97 499.51 280 499.51C335.63 499.51 388.89 543.86 388.89 560C388.89 574.11 334.44 560 280 560C213.78 560 147.57 574.41 147.57 560" stroke="rgba(51, 121, 194, 0.58)" stroke-width="2"></path><path d="M70 140C70 109.67 102.87 91.88 140 91.88C190.97 91.88 246.21 107.19 246.21 140C246.21 180.92 188 239.35 140 239.35C99.89 239.35 70 183.4 70 140" stroke="rgba(51, 121, 194, 0.58)" stroke-width="2"></path><path d="M420 9.18C411.46 9.18 404.86 2.47 404.86 0C404.86 -2.12 412.43 0 420 0C455 0 490 -2.29 490 0C490 2.3 454.03 9.18 420 9.18" stroke="rgba(51, 121, 194, 0.58)" stroke-width="2"></path><path d="M700 34.34C647.04 34.34 592.94 8.8 592.94 0C592.94 -8.37 646.47 0 700 0C743.34 0 786.67 -8.27 786.67 0C786.67 8.9 743.91 34.34 700 34.34" stroke="rgba(51, 121, 194, 0.58)" stroke-width="2"></path><path d="M824.44 140C824.94 112.36 817.9 91.12 840 86.15C895.68 73.62 912.07 88.28 980 105C1021.44 115.2 1058.75 123.16 1058.75 140C1058.75 156.61 1015.37 149.03 980 171.9C907.12 219.03 910.78 225.61 842.26 280C840.78 281.18 841.3 283.04 840 283.04C838.42 283.04 836.75 282.28 836.5 280C828.97 210.76 823.19 209.29 824.44 140" stroke="rgba(51, 121, 194, 0.58)" stroke-width="2"></path><path d="M1120 80.61C1097.57 80.61 1083.56 28.55 1083.56 0C1083.56 -11.76 1101.78 0 1120 0C1149.55 0 1179.11 -14.98 1179.11 0C1179.11 25.33 1145.34 80.61 1120 80.61" stroke="rgba(51, 121, 194, 0.58)" stroke-width="2"></path><path d="M623.64 420C623.64 401.48 665.28 375.79 700 375.79C723.46 375.79 740 400.36 740 420C740 435.87 721.7 446.81 700 446.81C663.52 446.81 623.64 436.99 623.64 420" stroke="rgba(51, 121, 194, 0.58)" stroke-width="2"></path><path d="M1382.86 420C1383.68 409.78 1392.08 406.88 1400 406.88C1406.4 406.88 1409.59 411.62 1411.51 420C1427.09 488.18 1439.62 503.85 1435 560C1433.86 573.85 1417.5 560 1400 560C1393.88 560 1388.44 565.63 1387.75 560C1379.87 495.63 1377.55 486.34 1382.86 420" stroke="rgba(51, 121, 194, 0.58)" stroke-width="2"></path><path d="M242.16 560C242.16 555.48 261.42 542.72 280 542.72C295.89 542.72 311.11 555.39 311.11 560C311.11 564.03 295.56 560 280 560C261.08 560 242.16 564.12 242.16 560" stroke="rgba(51, 121, 194, 0.58)" stroke-width="2"></path></g><defs><mask id="SvgjsMask1000"><rect width="1440" height="560" fill="#ffffff"></rect></mask></defs></svg>