<?xml version="1.0" encoding="UTF-8" standalone="no"?>
<svg
   version="1.1"
   width="560"
   height="1440"
   preserveAspectRatio="none"
   viewBox="0 0 560 1440"
   id="svg49"
   sodipodi:docname="ContourLineRo.svg"
   inkscape:version="1.1.2 (b8e25be8, 2022-02-05)"
   xmlns:inkscape="http://www.inkscape.org/namespaces/inkscape"
   xmlns:sodipodi="http://sodipodi.sourceforge.net/DTD/sodipodi-0.dtd"
   xmlns="http://www.w3.org/2000/svg"
   xmlns:svg="http://www.w3.org/2000/svg">
  <sodipodi:namedview
     id="namedview51"
     pagecolor="#ffffff"
     bordercolor="#666666"
     borderopacity="1.0"
     inkscape:pageshadow="2"
     inkscape:pageopacity="0.0"
     inkscape:pagecheckerboard="0"
     showgrid="false"
     inkscape:zoom="0.78263889"
     inkscape:cx="249.79592"
     inkscape:cy="686.77906"
     inkscape:window-width="1296"
     inkscape:window-height="969"
     inkscape:window-x="0"
     inkscape:window-y="25"
     inkscape:window-maximized="0"
     inkscape:current-layer="svg49" />
  <g
     mask="url(#SvgjsMask1000)"
     fill="none"
     id="g42"
     transform="matrix(0,-1,-1,0,560,1440)"
     inkscape:export-filename="/Users/ursulamontag/Development/muc-web-22-2/quiz-app/resources/img/g42.png"
     inkscape:export-xdpi="96"
     inkscape:export-ydpi="96">
    <rect
       width="1440"
       height="560"
       x="0"
       y="0"
       fill="#0e2a47"
       id="rect2" />
    <path
       d="m 420,123.93 c -10.05,0 -19.6,5.6 -19.6,16.07 0,20.9 9.24,46.67 19.6,46.67 10.58,0 22.27,-26.18 22.27,-46.67 0,-10.88 -11.38,-16.07 -22.27,-16.07"
       stroke="rgba(51, 121, 194, 0.58)"
       stroke-width="2"
       id="path4" />
    <path
       d="m 967.83,0 c 7.11,0.39 6.52,7.78 12.17,7.78 4.27,0 2.33,-7.48 7.67,-7.78 64.66,-3.59 66.17,0 132.33,0 70,0 70,0 140,0 70,0 70,0 140,0 70,0 94.56,-24.56 140,0 24.56,13.28 24.44,59.39 0,75.68 -45.56,30.37 -72.93,-0.84 -140,17.65 -49.6,13.67 -88.95,9.42 -93.33,46.67 -6.6,56.09 31.78,73.19 71.37,140 7.07,11.94 12.45,7.21 21.96,17.5 55.17,59.71 56.5,59.16 107.4,122.5 19.1,23.78 25.93,23.09 32.6,51.74 9.63,41.35 27.07,71.2 0,88.26 -42.93,27.07 -70,0 -140,0 -49.87,0 -67.18,24.97 -99.75,0 -37.43,-28.69 -5.93,-107.33 -40.25,-107.33 -50.2,0 -63.18,57.03 -128.8,107.33 -4.38,3.36 -5.6,0 -11.2,0 -70,0 -70,0 -140,0 -20,0 -25.27,11.78 -40,0 -55.27,-44.22 -41.53,-102.57 -100,-112 -61.53,-9.93 -69.87,36.89 -140,73.28 -37.79,19.61 -35.91,27.68 -75.83,38.72 -30.08,8.32 -32.08,0 -64.17,0 -70,0 -70,0 -140,0 -70,0 -70,0 -140,0 -70,0 -70,0 -140,0 -37.44,0 -41.49,11.92 -74.88,0 C 28.51,546.92 15.53,543.39 0,510 -17.03,473.39 0,465 0,420 0,373.34 -12.73,368.39 0,326.67 8.63,298.39 42.71,304.18 42.71,280 42.71,253.45 9.59,256.65 0,225.22 -11.77,186.65 0,182.61 0,140 0,70 -35,35 0,0 c 35,-35 70,0 140,0 70,0 70,0 140,0 70,0 70,0 140,0 70,0 70,0 140,0 70,0 70,0 140,0 70,0 70,0 140,0 63.91,0 64.94,-3.5 127.83,0"
       stroke="rgba(51, 121, 194, 0.58)"
       stroke-width="2"
       id="path6" />
    <path
       d="m 980,260.51 c -14.91,4.37 -24.84,5.22 -24.84,19.49 0,54.7 -13.37,91.65 24.84,118.46 44.21,31.02 91.38,28.68 140,-2.81 42.83,-27.74 42.9,-61.84 42.9,-115.65 0,-28.2 -14.42,-45.33 -42.9,-48.36 -62.97,-6.71 -72.49,9.06 -140,28.87"
       stroke="rgba(51, 121, 194, 0.58)"
       stroke-width="2"
       id="path8" />
    <path
       d="m 140,371.11 c -29.55,20.45 -53.1,22.23 -53.1,48.89 0,32 16.78,61.61 53.1,68.44 60.23,11.32 69.45,-19.05 140,-32.14 69.45,-12.89 74.6,-3.74 140,-19.83 8.38,-2.06 7.57,-8.19 7.57,-16.47 0,-8.71 -0.57,-11.16 -7.57,-17.5 -66.78,-60.48 -66.3,-107.88 -140,-116.14 -66.3,-7.43 -73,38.38 -140,84.75"
       stroke="rgba(51, 121, 194, 0.58)"
       stroke-width="2"
       id="path10" />
    <path
       d="M 77.37,0 C 111.31,9.02 105.35,29.82 140,37.19 206.66,51.36 218.12,56.6 280,43.08 303.25,38 287.57,6.98 310.27,0 c 47.3,-14.56 54.86,0 109.73,0 70,0 70,0 140,0 70,0 70,0 140,0 70,0 70,0 140,0 25.87,0 28.59,-9.32 51.74,0 46.85,18.87 47.3,56.39 88.26,56.39 30.98,0 21.73,-42.74 55.62,-56.39 36.11,-14.54 42.19,0 84.38,0 68.45,0 123.24,-32.27 136.89,0 15.96,37.73 -29.09,80.39 -77.66,140 -19.88,24.39 -28.67,16.31 -59.23,28 -69.06,26.41 -74.83,15.22 -140,48.2 -45.48,23.02 -45.46,27.22 -81.29,63.8 -34.17,34.88 -29.49,39.47 -58.71,79.13 -22.35,30.34 -16.73,36.15 -44.44,60.87 -42.29,37.73 -43.78,40.37 -95.56,64.04 -66,30.17 -90,61.66 -140,43.65 C 521.08,513.68 526.98,475.42 522.16,420 516.21,351.57 538.54,349.99 538.46,280 538.37,209.99 553.15,196.45 521.82,140 493.92,89.73 469.78,66.56 420,66.56 c -45.93,0 -47.84,33.64 -89.6,73.44 -28.24,26.92 -23.31,31.78 -50.4,60 -40.11,41.78 -39.47,43.24 -84,80 -25.47,21.02 -29.67,35.56 -56,35.56 -20.65,0 -21.26,-15.7 -37.97,-35.56 C 48.74,216.65 48.35,215.48 0,149.13 -2.66,145.48 0,144.56 0,140 0,70 -24.92,45.08 0,0 13.77,-24.92 41.31,-9.58 77.37,0"
       stroke="rgba(51, 121, 194, 0.58)"
       stroke-width="2"
       id="path12" />
    <path
       d="m 700,100.38 c -36.57,0 -54.96,6.15 -77.78,39.62 -38.43,56.34 -65.56,93.26 -44.72,140 18.05,40.46 64.19,34.39 122.5,34.39 27.44,0 42.01,-8.28 49,-34.39 16.35,-61.08 14.72,-77.51 -2.33,-140 -7.45,-27.32 -21.02,-39.62 -46.67,-39.62"
       stroke="rgba(51, 121, 194, 0.58)"
       stroke-width="2"
       id="path14" />
    <path
       d="m 1400,35 c -65.09,0 -131.25,-26.1 -131.25,-35 0,-8.6 65.63,0 131.25,0 52.5,0 105,-8.52 105,0 0,8.98 -51.96,35 -105,35"
       stroke="rgba(51, 121, 194, 0.58)"
       stroke-width="2"
       id="path16" />
    <path
       d="m 1219.35,280 c 0,-37.8 18.7,-76.36 40.65,-76.36 23.08,0 49.41,38.68 49.41,76.36 0,35.5 -26.26,70 -49.41,70 -21.88,0 -40.65,-34.62 -40.65,-70"
       stroke="rgba(51, 121, 194, 0.58)"
       stroke-width="2"
       id="path18" />
    <path
       d="m 0,391.48 c 7.66,0 26.55,14.38 26.55,28.52 0,13.87 -18.83,27.5 -26.55,27.5 -5.55,0 0,-13.75 0,-27.5 0,-14.26 -5.61,-28.52 0,-28.52"
       stroke="rgba(51, 121, 194, 0.58)"
       stroke-width="2"
       id="path20" />
    <path
       d="m 1311.43,420 c 12.23,-45.4 47.65,-67.81 88.57,-67.81 33.09,0 33.29,31.25 59.45,67.81 43.84,61.26 43.28,63.05 80.55,127.83 3,5.22 5.6,11.68 0,12.17 -64.4,5.6 -70,0 -140,0 -28,0 -43.58,19.63 -56,0 -31.87,-50.37 -48.34,-81.5 -32.57,-140"
       stroke="rgba(51, 121, 194, 0.58)"
       stroke-width="2"
       id="path22" />
    <path
       d="m 147.57,560 c 0,-15.84 67.4,-60.49 132.43,-60.49 55.63,0 108.89,44.35 108.89,60.49 0,14.11 -54.45,0 -108.89,0 -66.22,0 -132.43,14.41 -132.43,0"
       stroke="rgba(51, 121, 194, 0.58)"
       stroke-width="2"
       id="path24" />
    <path
       d="m 70,140 c 0,-30.33 32.87,-48.12 70,-48.12 50.97,0 106.21,15.31 106.21,48.12 0,40.92 -58.21,99.35 -106.21,99.35 -40.11,0 -70,-55.95 -70,-99.35"
       stroke="rgba(51, 121, 194, 0.58)"
       stroke-width="2"
       id="path26" />
    <path
       d="m 420,9.18 c -8.54,0 -15.14,-6.71 -15.14,-9.18 0,-2.12 7.57,0 15.14,0 35,0 70,-2.29 70,0 0,2.3 -35.97,9.18 -70,9.18"
       stroke="rgba(51, 121, 194, 0.58)"
       stroke-width="2"
       id="path28" />
    <path
       d="M 700,34.34 C 647.04,34.34 592.94,8.8 592.94,0 c 0,-8.37 53.53,0 107.06,0 43.34,0 86.67,-8.27 86.67,0 0,8.9 -42.76,34.34 -86.67,34.34"
       stroke="rgba(51, 121, 194, 0.58)"
       stroke-width="2"
       id="path30" />
    <path
       d="m 824.44,140 c 0.5,-27.64 -6.54,-48.88 15.56,-53.85 55.68,-12.53 72.07,2.13 140,18.85 41.44,10.2 78.75,18.16 78.75,35 0,16.61 -43.38,9.03 -78.75,31.9 -72.88,47.13 -69.22,53.71 -137.74,108.1 -1.48,1.18 -0.96,3.04 -2.26,3.04 -1.58,0 -3.25,-0.76 -3.5,-3.04 -7.53,-69.24 -13.31,-70.71 -12.06,-140"
       stroke="rgba(51, 121, 194, 0.58)"
       stroke-width="2"
       id="path32" />
    <path
       d="m 1120,80.61 c -22.43,0 -36.44,-52.06 -36.44,-80.61 0,-11.76 18.22,0 36.44,0 29.55,0 59.11,-14.98 59.11,0 0,25.33 -33.77,80.61 -59.11,80.61"
       stroke="rgba(51, 121, 194, 0.58)"
       stroke-width="2"
       id="path34" />
    <path
       d="m 623.64,420 c 0,-18.52 41.64,-44.21 76.36,-44.21 23.46,0 40,24.57 40,44.21 0,15.87 -18.3,26.81 -40,26.81 -36.48,0 -76.36,-9.82 -76.36,-26.81"
       stroke="rgba(51, 121, 194, 0.58)"
       stroke-width="2"
       id="path36" />
    <path
       d="m 1382.86,420 c 0.82,-10.22 9.22,-13.12 17.14,-13.12 6.4,0 9.59,4.74 11.51,13.12 15.58,68.18 28.11,83.85 23.49,140 -1.14,13.85 -17.5,0 -35,0 -6.12,0 -11.56,5.63 -12.25,0 -7.88,-64.37 -10.2,-73.66 -4.89,-140"
       stroke="rgba(51, 121, 194, 0.58)"
       stroke-width="2"
       id="path38" />
    <path
       d="m 242.16,560 c 0,-4.52 19.26,-17.28 37.84,-17.28 15.89,0 31.11,12.67 31.11,17.28 0,4.03 -15.55,0 -31.11,0 -18.92,0 -37.84,4.12 -37.84,0"
       stroke="rgba(51, 121, 194, 0.58)"
       stroke-width="2"
       id="path40" />
  </g>
  <defs
     id="defs47">
    <mask
       id="SvgjsMask1000">
      <rect
         width="1440"
         height="560"
         fill="#ffffff"
         id="rect44"
         x="0"
         y="0" />
    </mask>
  </defs>
</svg>
